<svg width="640" height="280" viewBox="0 0 640 280" font-family="Arial, sans-serif" xmlns="http://www.w3.org/2000/svg"><rect width="640" height="280" rx="12" fill="#cc0000"></rect><rect x="8" y="8" width="624" height="264" rx="10" fill="#dd1111"></rect><text x="320" y="35" text-anchor="middle" font-size="11" fill="#ffffff" letter-spacing="2">BENNING IT 130</text><rect x="190" y="55" width="260" height="190" rx="4" fill="#dddddd" stroke="#444444" stroke-width="1"></rect><text x="198" y="84" font-size="13" font-weight="bold" fill="#111111" font-family="'Courier New', monospace">RCD I</text><text x="442" y="84" text-anchor="end" font-size="13" font-weight="bold" fill="#111111" font-family="'Courier New', monospace">AC~</text><line x1="194" y1="92" x2="446" y2="92" stroke="#999999" stroke-width="0.5"></line><line x1="194" y1="190" x2="446" y2="190" stroke="#999999" stroke-width="0.5"></line><text x="320" y="149" text-anchor="middle" font-size="52" font-weight="bold" fill="#111111" font-family="'Courier New', monospace">I:20,4mA</text><text x="198" y="182" font-size="12" font-weight="bold" fill="#111111" font-family="'Courier New', monospace">Uci:0.1V</text><text x="320" y="182" font-size="12" font-weight="bold" fill="#111111" font-family="'Courier New', monospace">t:20,3ms</text><circle cx="333" cy="210" r="8.2" fill="#000000"></circle><text x="333" y="230" text-anchor="middle" font-size="12" font-weight="bold" fill="#111111" font-family="'Courier New', monospace">L</text><circle cx="367" cy="210" r="8.2" fill="#000000"></circle><text x="367" y="230" text-anchor="middle" font-size="12" font-weight="bold" fill="#111111" font-family="'Courier New', monospace">PE</text><circle cx="404" cy="210" r="8.2" fill="none" stroke="#000000" stroke-width="1"></circle><path d="M 404 210 L 404 201.8 A 8.2 8.2 0 0 1 404 218.2 Z" fill="#000000"></path><text x="404" y="230" text-anchor="middle" font-size="12" font-weight="bold" fill="#111111" font-family="'Courier New', monospace">N</text><g style=""><circle cx="57" cy="149" r="24" fill="#cccccc" stroke="#888888" stroke-width="2"></circle><circle cx="57" cy="149" r="18" fill="#eeeeee" stroke="#aaaaaa" stroke-width="1.5"></circle><text x="57" y="154" text-anchor="middle" font-size="13" font-weight="bold" fill="#333333">TEST</text></g><g style=""><rect x="110" y="81" width="48" height="24" rx="3" ry="3" fill="#111111" stroke="#333333" stroke-width="1"></rect><text x="134" y="97.66666666666667" text-anchor="middle" font-size="14" font-weight="bold" fill="#ffffff">▲</text></g><g style=""><rect x="110" y="123" width="48" height="24" rx="3" ry="3" fill="#111111" stroke="#333333" stroke-width="1"></rect><text x="134" y="139.66666666666666" text-anchor="middle" font-size="14" font-weight="bold" fill="#ffffff">▼</text></g><g style=""><rect x="110" y="163" width="48" height="24" rx="3" ry="3" fill="#111111" stroke="#333333" stroke-width="1"></rect><text x="134" y="179.66666666666666" text-anchor="middle" font-size="14" font-weight="bold" fill="#ffffff">◄►</text></g><text x="502.16283142591584" y="124" text-anchor="middle" font-size="11" font-weight="bold" fill="#ffffff">R LOW</text><line x1="512.555136271329" y1="130" x2="509.0910346561913" y2="128" stroke="#ffffff" stroke-width="2.5"></line><text x="526.2670734070192" y="103.77413944384821" text-anchor="middle" font-size="11" font-weight="bold" fill="#ffffff">R ISO</text><line x1="530.3713151269272" y1="115.0504508932791" x2="529.0032345536246" y2="111.29168041013548" stroke="#ffffff" stroke-width="2.5"></line><text x="557.7329265929808" y="103.77413944384821" text-anchor="middle" font-size="11" font-weight="bold" fill="#ffffff">ZI</text><line x1="553.6286848730728" y1="115.05045089327912" x2="554.9967654463754" y2="111.29168041013548" stroke="#ffffff" stroke-width="2.5"></line><text x="581.8371685740842" y="124" text-anchor="middle" font-size="11" font-weight="bold" fill="#ffffff">ZS</text><line x1="571.444863728671" y1="130" x2="574.9089653438086" y2="128" stroke="#ffffff" stroke-width="2.5"></line><text x="585.2258605561518" y="162.73292659298076" text-anchor="middle" font-size="11" font-weight="bold" fill="#ffffff">FI/RCD</text><line x1="573.9495491067208" y1="158.62868487307273" x2="577.7083195898646" y2="159.9967654463754" stroke="#ffffff" stroke-width="2.5"></line><text x="557.7329265929808" y="190.2258605561518" text-anchor="middle" font-size="11" font-weight="bold" fill="#ffffff">V~</text><line x1="553.6286848730728" y1="178.9495491067209" x2="554.9967654463754" y2="182.70831958986452" stroke="#ffffff" stroke-width="2.5"></line><g style=""><circle cx="542" cy="147" r="26" fill="#1a1a1a" stroke="#555555" stroke-width="2"></circle><rect x="524" y="139" width="36" height="16" rx="2" ry="2" fill="#555555"></rect><line x1="542" y1="147" x2="572.0701638651491" y2="157.9446445864214" stroke="#ffffff" stroke-width="3" stroke-linecap="round"></line></g><g style=""><rect x="478" y="219" width="60" height="30" rx="3" ry="3" fill="#111111" stroke="#333333" stroke-width="1"></rect><text x="508" y="238.33333333333334" text-anchor="middle" font-size="13" font-weight="bold" fill="#ffffff">ON/OFF</text></g><g style=""><rect x="560" y="219" width="60" height="30" rx="3" ry="3" fill="#111111" stroke="#333333" stroke-width="1"></rect><text x="590" y="238.33333333333334" text-anchor="middle" font-size="13" font-weight="bold" fill="#ffffff">CAL</text></g></svg>