<svg width="640" height="720" viewBox="0 0 640 720" xmlns="http://www.w3.org/2000/svg"><rect x="0" y="0" width="640" height="720" rx="6" fill="#cccccc" stroke="#888888" stroke-width="2"></rect><rect x="8" y="8" width="624" height="704" rx="4" fill="#e5e5e5" stroke="#bbbbbb" stroke-width="1.5"></rect><g transform="translate(20, 20)"><rect x="0" y="55" width="600" height="70" fill="#a0a0a0"></rect><rect x="0" y="41" width="12" height="98" fill="#aaaaaa" stroke="#555555" stroke-width="1"></rect><circle cx="6" cy="49" r="4" fill="#888888" data-querschnitt="2.5" data-farbe="schwarz" data-netz="N11" style="cursor: pointer;"></circle><circle cx="6" cy="131" r="4" fill="#888888" data-querschnitt="2.5" data-farbe="schwarz" data-netz="N13" style="cursor: pointer;"></circle><rect x="12" y="41" width="12" height="98" fill="#4466cc" stroke="#555555" stroke-width="1"></rect><circle cx="18" cy="49" r="4" fill="#888888" data-querschnitt="2.5" data-farbe="blau" data-netz="N8" style="cursor: pointer;"></circle><circle cx="18" cy="131" r="4" fill="#888888" data-querschnitt="2.5" data-farbe="blau" data-netz="N14" style="cursor: pointer;"></circle><rect x="24" y="41" width="12" height="98" fill="#44aa44" stroke="#555555" stroke-width="1"></rect><circle cx="30" cy="49" r="4" fill="#888888" data-querschnitt="2.5" data-farbe="gn-ge" data-netz="N9" style="cursor: pointer;"></circle><circle cx="30" cy="131" r="4" fill="#888888" data-querschnitt="2.5" data-farbe="gn-ge" data-netz="N15" style="cursor: pointer;"></circle><rect x="36" y="41" width="12" height="98" fill="#aaaaaa" stroke="#555555" stroke-width="1"></rect><circle cx="42" cy="49" r="4" fill="#888888" data-querschnitt="1.5" data-farbe="schwarz" data-netz="N12" style="cursor: pointer;"></circle><circle cx="42" cy="131" r="4" fill="#888888" data-querschnitt="1.5" data-farbe="schwarz" data-netz="N16" style="cursor: pointer;"></circle><rect x="48" y="41" width="12" height="98" fill="#4466cc" stroke="#555555" stroke-width="1"></rect><circle cx="54" cy="49" r="4" fill="#888888" data-querschnitt="2.5" data-farbe="blau" data-netz="N8" style="cursor: pointer;"></circle><circle cx="54" cy="131" r="4" fill="#888888" data-querschnitt="1.5" data-farbe="blau" data-netz="N17" style="cursor: pointer;"></circle><rect x="60" y="41" width="12" height="98" fill="#44aa44" stroke="#555555" stroke-width="1"></rect><circle cx="66" cy="49" r="4" fill="#888888" data-querschnitt="1.5" data-farbe="gn-ge" data-netz="N18" style="cursor: pointer;"></circle><circle cx="66" cy="131" r="4" fill="#888888" data-querschnitt="1.5" data-farbe="gn-ge" data-netz="N18" style="cursor: pointer;"></circle><rect x="0" y="305" width="600" height="70" fill="#a0a0a0"></rect><rect x="0" y="250" width="72" height="180" fill="#e0e0e0" stroke="#555555" stroke-width="1"></rect><rect x="0" y="250" width="72" height="20" fill="#aaaaaa"></rect><text x="36" y="282" text-anchor="middle" font-size="9" fill="#000000"><tspan x="36" dy="0">A 30mA</tspan><tspan x="36" dy="10">40A</tspan></text><g style="cursor: pointer;"><rect x="8" y="322" width="24" height="36" fill="#f5f5f5" stroke="#555555" stroke-width="1.2"></rect><g><rect x="12" y="326" width="16" height="14" fill="#dddddd" stroke="#222222" stroke-width="1"></rect><rect x="12" y="326" width="16" height="4" fill="#222222"></rect><line x1="14" x2="26" y1="332" y2="332" stroke="#222222" stroke-width="1"></line><line x1="14" x2="26" y1="335" y2="335" stroke="#222222" stroke-width="1"></line><line x1="14" x2="26" y1="338" y2="338" stroke="#222222" stroke-width="1"></line></g></g><circle cx="18" cy="260" r="4" fill="#888888" data-querschnitt="10" data-farbe="schwarz" data-netz="N4" style="cursor: pointer;"></circle><circle cx="18" cy="420" r="4" fill="#888888" data-querschnitt="2.5" data-farbe="schwarz" data-netz="N6" data-netz-weitere="N7" style="cursor: pointer;"></circle><circle cx="54" cy="260" r="4" fill="#888888" data-querschnitt="10" data-farbe="blau" data-netz="N5" style="cursor: pointer;"></circle><circle cx="54" cy="420" r="4" fill="#888888" data-querschnitt="2.5" data-farbe="blau" data-netz="N8" style="cursor: pointer;"></circle><rect x="72" y="250" width="36" height="180" fill="#e0e0e0" stroke="#555555" stroke-width="1"></rect><rect x="72" y="250" width="36" height="20" fill="#aaaaaa"></rect><text x="90" y="282" text-anchor="middle" font-size="9" fill="#000000"><tspan x="90" dy="0">B16</tspan></text><g style="cursor: pointer;"><rect x="78" y="322" width="24" height="36" fill="#f5f5f5" stroke="#555555" stroke-width="1.2"></rect><g><rect x="82" y="326" width="16" height="14" fill="#dddddd" stroke="#222222" stroke-width="1"></rect><rect x="82" y="326" width="16" height="4" fill="#222222"></rect><line x1="84" x2="96" y1="332" y2="332" stroke="#222222" stroke-width="1"></line><line x1="84" x2="96" y1="335" y2="335" stroke="#222222" stroke-width="1"></line><line x1="84" x2="96" y1="338" y2="338" stroke="#222222" stroke-width="1"></line></g></g><circle cx="90" cy="260" r="4" fill="#888888" data-querschnitt="2.5" data-farbe="schwarz" data-netz="N6" style="cursor: pointer;"></circle><circle cx="90" cy="420" r="4" fill="#888888" data-querschnitt="2.5" data-farbe="schwarz" data-netz="N11" style="cursor: pointer;"></circle><rect x="108" y="250" width="36" height="180" fill="#e0e0e0" stroke="#555555" stroke-width="1"></rect><rect x="108" y="250" width="36" height="20" fill="#aaaaaa"></rect><text x="126" y="282" text-anchor="middle" font-size="9" fill="#000000"><tspan x="126" dy="0">B10</tspan></text><g style="cursor: pointer;"><rect x="114" y="322" width="24" height="36" fill="#f5f5f5" stroke="#555555" stroke-width="1.2"></rect><g><rect x="118" y="326" width="16" height="14" fill="#dddddd" stroke="#222222" stroke-width="1"></rect><rect x="118" y="326" width="16" height="4" fill="#222222"></rect><line x1="120" x2="132" y1="332" y2="332" stroke="#222222" stroke-width="1"></line><line x1="120" x2="132" y1="335" y2="335" stroke="#222222" stroke-width="1"></line><line x1="120" x2="132" y1="338" y2="338" stroke="#222222" stroke-width="1"></line></g></g><circle cx="126" cy="260" r="4" fill="#888888" data-querschnitt="1.5" data-farbe="schwarz" data-netz="N7" style="cursor: pointer;"></circle><circle cx="126" cy="420" r="4" fill="#888888" data-querschnitt="1.5" data-farbe="schwarz" data-netz="N12" style="cursor: pointer;"></circle><rect x="0" y="555" width="600" height="70" fill="#a0a0a0"></rect><rect x="0" y="500" width="72" height="180" fill="#444444" stroke="#555555" stroke-width="1"></rect><rect x="0" y="500" width="72" height="20" fill="#222222"></rect><text x="36" y="532" text-anchor="middle" font-size="9" fill="#ffffff"><tspan x="36" dy="0">25A</tspan></text><g style="cursor: pointer;"><rect x="12" y="572" width="48" height="36" fill="#f5f5f5" stroke="#555555" stroke-width="1.2"></rect><g><rect x="16" y="576" width="40" height="14" fill="#dddddd" stroke="#222222" stroke-width="1"></rect><rect x="16" y="576" width="40" height="4" fill="#222222"></rect><line x1="18" x2="54" y1="582" y2="582" stroke="#222222" stroke-width="1"></line><line x1="18" x2="54" y1="585" y2="585" stroke="#222222" stroke-width="1"></line><line x1="18" x2="54" y1="588" y2="588" stroke="#222222" stroke-width="1"></line></g></g><circle cx="18" cy="510" r="4" fill="#888888" data-querschnitt="16" data-farbe="schwarz" data-netz="N1" style="cursor: pointer;"></circle><circle cx="18" cy="670" r="4" fill="#888888" data-querschnitt="10" data-farbe="schwarz" data-netz="N4" style="cursor: pointer;"></circle><circle cx="54" cy="510" r="4" fill="#888888" data-querschnitt="16" data-farbe="blau" data-netz="N2" style="cursor: pointer;"></circle><circle cx="54" cy="670" r="4" fill="#888888" data-querschnitt="10" data-farbe="blau" data-netz="N5" style="cursor: pointer;"></circle><rect x="72" y="541" width="24" height="98" fill="#44aa44" stroke="#555555" stroke-width="1"></rect><rect x="72" y="541" width="24" height="10" fill="#227722"></rect><circle cx="84" cy="549" r="4" fill="#888888" data-querschnitt="16" data-farbe="gn-ge" data-netz="N3" style="cursor: pointer;"></circle><circle cx="84" cy="631" r="4" fill="#888888" data-querschnitt="2.5" data-farbe="gn-ge" data-netz="N9" style="cursor: pointer;"></circle></g></svg>