<svg width="640" height="720" viewBox="0 0 640 720" xmlns="http://www.w3.org/2000/svg"><rect x="0" y="0" width="640" height="720" rx="6" fill="#cccccc" stroke="#888888" stroke-width="2"></rect><rect x="8" y="8" width="624" height="704" rx="4" fill="#e5e5e5" stroke="#bbbbbb" stroke-width="1.5"></rect><g transform="translate(20, 20)"><rect x="0" y="55" width="600" height="70" fill="#a0a0a0"></rect><rect x="0" y="41" width="12" height="98" fill="#aaaaaa" stroke="#555555" stroke-width="1"></rect><circle cx="6" cy="49" r="4" fill="#888888" data-querschnitt="2.5" data-farbe="schwarz" data-netz="N24" style="cursor: pointer;"></circle><circle cx="6" cy="131" r="4" fill="#888888" data-querschnitt="2.5" data-farbe="schwarz" data-netz="N27" style="cursor: pointer;"></circle><rect x="12" y="41" width="12" height="98" fill="#4466cc" stroke="#555555" stroke-width="1"></rect><circle cx="18" cy="49" r="4" fill="#888888" data-querschnitt="2.5" data-farbe="blau" data-netz="N23" style="cursor: pointer;"></circle><circle cx="18" cy="131" r="4" fill="#888888" data-querschnitt="2.5" data-farbe="blau" data-netz="N28" style="cursor: pointer;"></circle><rect x="24" y="41" width="12" height="98" fill="#44aa44" stroke="#555555" stroke-width="1"></rect><circle cx="30" cy="49" r="4" fill="#888888" data-querschnitt="2.5" data-farbe="gn-ge" data-netz="N30" style="cursor: pointer;"></circle><circle cx="30" cy="131" r="4" fill="#888888" data-querschnitt="2.5" data-farbe="gn-ge" data-netz="N29" style="cursor: pointer;"></circle><rect x="36" y="41" width="12" height="98" fill="#aaaaaa" stroke="#555555" stroke-width="1"></rect><circle cx="42" cy="49" r="4" fill="#888888" data-querschnitt="2.5" data-farbe="braun" data-netz="N25" style="cursor: pointer;"></circle><circle cx="42" cy="131" r="4" fill="#888888" data-querschnitt="2.5" data-farbe="braun" data-netz="N31" style="cursor: pointer;"></circle><rect x="48" y="41" width="12" height="98" fill="#4466cc" stroke="#555555" stroke-width="1"></rect><circle cx="54" cy="49" r="4" fill="#888888" data-querschnitt="2.5" data-farbe="blau" data-netz="N23" style="cursor: pointer;"></circle><circle cx="54" cy="131" r="4" fill="#888888" data-querschnitt="2.5" data-farbe="blau" data-netz="N32" style="cursor: pointer;"></circle><rect x="60" y="41" width="12" height="98" fill="#44aa44" stroke="#555555" stroke-width="1"></rect><circle cx="66" cy="49" r="4" fill="#888888" data-querschnitt="2.5" data-farbe="gn-ge" data-netz="N33" style="cursor: pointer;"></circle><circle cx="66" cy="131" r="4" fill="#888888" data-querschnitt="2.5" data-farbe="gn-ge" data-netz="N33" style="cursor: pointer;"></circle><rect x="72" y="41" width="12" height="98" fill="#aaaaaa" stroke="#555555" stroke-width="1"></rect><circle cx="78" cy="49" r="4" fill="#888888" data-querschnitt="2.5" data-farbe="grau" data-netz="N26" style="cursor: pointer;"></circle><circle cx="78" cy="131" r="4" fill="#888888" data-querschnitt="2.5" data-farbe="grau" data-netz="N34" style="cursor: pointer;"></circle><rect x="84" y="41" width="12" height="98" fill="#4466cc" stroke="#555555" stroke-width="1"></rect><circle cx="90" cy="49" r="4" fill="#888888" data-querschnitt="2.5" data-farbe="blau" data-netz="N23" style="cursor: pointer;"></circle><circle cx="90" cy="131" r="4" fill="#888888" data-querschnitt="2.5" data-farbe="blau" data-netz="N35" style="cursor: pointer;"></circle><rect x="96" y="41" width="12" height="98" fill="#44aa44" stroke="#555555" stroke-width="1"></rect><circle cx="102" cy="49" r="4" fill="#888888" data-querschnitt="2.5" data-farbe="gn-ge" data-netz="N36" style="cursor: pointer;"></circle><circle cx="102" cy="131" r="4" fill="#888888" data-querschnitt="2.5" data-farbe="gn-ge" data-netz="N36" style="cursor: pointer;"></circle><rect x="0" y="305" width="600" height="70" fill="#a0a0a0"></rect><rect x="0" y="250" width="144" height="180" fill="#e0e0e0" stroke="#555555" stroke-width="1"></rect><rect x="0" y="250" width="144" height="20" fill="#aaaaaa"></rect><text x="72" y="282" text-anchor="middle" font-size="9" fill="#000000">A 30mA</text><g style="cursor: pointer;"><rect x="8" y="322" width="96" height="36" fill="#f5f5f5" stroke="#555555" stroke-width="1.2"></rect><g><rect x="12" y="326" width="88" height="14" fill="#dddddd" stroke="#222222" stroke-width="1"></rect><rect x="12" y="326" width="88" height="4" fill="#222222"></rect><line x1="14" x2="98" y1="332" y2="332" stroke="#222222" stroke-width="1"></line><line x1="14" x2="98" y1="335" y2="335" stroke="#222222" stroke-width="1"></line><line x1="14" x2="98" y1="338" y2="338" stroke="#222222" stroke-width="1"></line></g></g><circle cx="18" cy="260" r="4" fill="#888888" data-querschnitt="10" data-farbe="schwarz" data-netz="N9" style="cursor: pointer;"></circle><circle cx="18" cy="420" r="4" fill="#888888" data-querschnitt="2.5" data-farbe="schwarz" data-netz="N20" style="cursor: pointer;"></circle><circle cx="54" cy="260" r="4" fill="#888888" data-querschnitt="10" data-farbe="braun" data-netz="N10" style="cursor: pointer;"></circle><circle cx="54" cy="420" r="4" fill="#888888" data-querschnitt="2.5" data-farbe="braun" data-netz="N21" style="cursor: pointer;"></circle><circle cx="90" cy="260" r="4" fill="#888888" data-querschnitt="10" data-farbe="grau" data-netz="N11" style="cursor: pointer;"></circle><circle cx="90" cy="420" r="4" fill="#888888" data-querschnitt="2.5" data-farbe="grau" data-netz="N22" style="cursor: pointer;"></circle><circle cx="126" cy="260" r="4" fill="#888888" data-querschnitt="10" data-farbe="blau" data-netz="N12" style="cursor: pointer;"></circle><circle cx="126" cy="420" r="4" fill="#888888" data-querschnitt="2.5" data-farbe="blau" data-netz="N23" style="cursor: pointer;"></circle><rect x="144" y="250" width="36" height="180" fill="#e0e0e0" stroke="#555555" stroke-width="1"></rect><rect x="144" y="250" width="36" height="20" fill="#aaaaaa"></rect><text x="162" y="282" text-anchor="middle" font-size="9" fill="#000000">B16</text><g style="cursor: pointer;"><rect x="150" y="322" width="24" height="36" fill="#f5f5f5" stroke="#555555" stroke-width="1.2"></rect><g><rect x="154" y="326" width="16" height="14" fill="#dddddd" stroke="#222222" stroke-width="1"></rect><rect x="154" y="326" width="16" height="4" fill="#222222"></rect><line x1="156" x2="168" y1="332" y2="332" stroke="#222222" stroke-width="1"></line><line x1="156" x2="168" y1="335" y2="335" stroke="#222222" stroke-width="1"></line><line x1="156" x2="168" y1="338" y2="338" stroke="#222222" stroke-width="1"></line></g></g><circle cx="162" cy="260" r="4" fill="#888888" data-querschnitt="2.5" data-farbe="schwarz" data-netz="N20" style="cursor: pointer;"></circle><circle cx="162" cy="420" r="4" fill="#888888" data-querschnitt="2.5" data-farbe="schwarz" data-netz="N24" style="cursor: pointer;"></circle><rect x="180" y="250" width="36" height="180" fill="#e0e0e0" stroke="#555555" stroke-width="1"></rect><rect x="180" y="250" width="36" height="20" fill="#aaaaaa"></rect><text x="198" y="282" text-anchor="middle" font-size="9" fill="#000000">B16</text><g style="cursor: pointer;"><rect x="186" y="322" width="24" height="36" fill="#f5f5f5" stroke="#555555" stroke-width="1.2"></rect><g><rect x="190" y="326" width="16" height="14" fill="#dddddd" stroke="#222222" stroke-width="1"></rect><rect x="190" y="326" width="16" height="4" fill="#222222"></rect><line x1="192" x2="204" y1="332" y2="332" stroke="#222222" stroke-width="1"></line><line x1="192" x2="204" y1="335" y2="335" stroke="#222222" stroke-width="1"></line><line x1="192" x2="204" y1="338" y2="338" stroke="#222222" stroke-width="1"></line></g></g><circle cx="198" cy="260" r="4" fill="#888888" data-querschnitt="2.5" data-farbe="braun" data-netz="N21" style="cursor: pointer;"></circle><circle cx="198" cy="420" r="4" fill="#888888" data-querschnitt="2.5" data-farbe="braun" data-netz="N25" style="cursor: pointer;"></circle><rect x="216" y="250" width="36" height="180" fill="#e0e0e0" stroke="#555555" stroke-width="1"></rect><rect x="216" y="250" width="36" height="20" fill="#aaaaaa"></rect><text x="234" y="282" text-anchor="middle" font-size="9" fill="#000000">B16</text><g style="cursor: pointer;"><rect x="222" y="322" width="24" height="36" fill="#f5f5f5" stroke="#555555" stroke-width="1.2"></rect><g><rect x="226" y="326" width="16" height="14" fill="#dddddd" stroke="#222222" stroke-width="1"></rect><rect x="226" y="326" width="16" height="4" fill="#222222"></rect><line x1="228" x2="240" y1="332" y2="332" stroke="#222222" stroke-width="1"></line><line x1="228" x2="240" y1="335" y2="335" stroke="#222222" stroke-width="1"></line><line x1="228" x2="240" y1="338" y2="338" stroke="#222222" stroke-width="1"></line></g></g><circle cx="234" cy="260" r="4" fill="#888888" data-querschnitt="2.5" data-farbe="grau" data-netz="N22" style="cursor: pointer;"></circle><circle cx="234" cy="420" r="4" fill="#888888" data-querschnitt="2.5" data-farbe="grau" data-netz="N26" style="cursor: pointer;"></circle><rect x="0" y="555" width="600" height="70" fill="#a0a0a0"></rect><rect x="0" y="500" width="108" height="180" fill="#444444" stroke="#555555" stroke-width="1"></rect><rect x="0" y="500" width="108" height="20" fill="#222222"></rect><text x="54" y="532" text-anchor="middle" font-size="9" fill="#ffffff">35A</text><g style="cursor: pointer;"><rect x="15" y="572" width="78" height="36" fill="#f5f5f5" stroke="#555555" stroke-width="1.2"></rect><g><rect x="19" y="576" width="70" height="14" fill="#dddddd" stroke="#222222" stroke-width="1"></rect><rect x="19" y="576" width="70" height="4" fill="#222222"></rect><line x1="21" x2="87" y1="582" y2="582" stroke="#222222" stroke-width="1"></line><line x1="21" x2="87" y1="585" y2="585" stroke="#222222" stroke-width="1"></line><line x1="21" x2="87" y1="588" y2="588" stroke="#222222" stroke-width="1"></line></g></g><circle cx="18" cy="510" r="4" fill="#888888" data-querschnitt="10" data-farbe="schwarz" data-netz="N6" style="cursor: pointer;"></circle><circle cx="18" cy="670" r="4" fill="#888888" data-querschnitt="10" data-farbe="schwarz" data-netz="N9" style="cursor: pointer;"></circle><circle cx="54" cy="510" r="4" fill="#888888" data-querschnitt="10" data-farbe="braun" data-netz="N7" style="cursor: pointer;"></circle><circle cx="54" cy="670" r="4" fill="#888888" data-querschnitt="10" data-farbe="braun" data-netz="N10" style="cursor: pointer;"></circle><circle cx="90" cy="510" r="4" fill="#888888" data-querschnitt="10" data-farbe="grau" data-netz="N8" style="cursor: pointer;"></circle><circle cx="90" cy="670" r="4" fill="#888888" data-querschnitt="10" data-farbe="grau" data-netz="N11" style="cursor: pointer;"></circle><rect x="108" y="541" width="24" height="98" fill="#aaaaaa" stroke="#555555" stroke-width="1"></rect><rect x="108" y="541" width="24" height="10" fill="#666666"></rect><circle cx="120" cy="549" r="4" fill="#888888" data-querschnitt="16" data-farbe="schwarz" data-netz="N1" style="cursor: pointer;"></circle><circle cx="120" cy="631" r="4" fill="#888888" data-querschnitt="10" data-farbe="schwarz" data-netz="N6" style="cursor: pointer;"></circle><rect x="132" y="541" width="24" height="98" fill="#aaaaaa" stroke="#555555" stroke-width="1"></rect><rect x="132" y="541" width="24" height="10" fill="#666666"></rect><circle cx="144" cy="549" r="4" fill="#888888" data-querschnitt="16" data-farbe="braun" data-netz="N2" style="cursor: pointer;"></circle><circle cx="144" cy="631" r="4" fill="#888888" data-querschnitt="10" data-farbe="braun" data-netz="N7" style="cursor: pointer;"></circle><rect x="156" y="541" width="24" height="98" fill="#aaaaaa" stroke="#555555" stroke-width="1"></rect><rect x="156" y="541" width="24" height="10" fill="#666666"></rect><circle cx="168" cy="549" r="4" fill="#888888" data-querschnitt="16" data-farbe="grau" data-netz="N3" style="cursor: pointer;"></circle><circle cx="168" cy="631" r="4" fill="#888888" data-querschnitt="10" data-farbe="grau" data-netz="N8" style="cursor: pointer;"></circle><rect x="180" y="541" width="24" height="98" fill="#4466cc" stroke="#555555" stroke-width="1"></rect><rect x="180" y="541" width="24" height="10" fill="#224499"></rect><circle cx="192" cy="549" r="4" fill="#888888" data-querschnitt="16" data-farbe="blau" data-netz="N4" style="cursor: pointer;"></circle><circle cx="192" cy="631" r="4" fill="#888888" data-querschnitt="10" data-farbe="blau" data-netz="N12" style="cursor: pointer;"></circle><rect x="204" y="541" width="24" height="98" fill="#44aa44" stroke="#555555" stroke-width="1"></rect><rect x="204" y="541" width="24" height="10" fill="#227722"></rect><circle cx="216" cy="549" r="4" fill="#888888" data-querschnitt="16" data-farbe="gn-ge" data-netz="N5" style="cursor: pointer;"></circle><circle cx="216" cy="631" r="4" fill="#888888" data-querschnitt="2.5" data-farbe="gn-ge" data-netz="N30" style="cursor: pointer;"></circle></g></svg>