<svg width="640" height="970" viewBox="0 0 640 970" xmlns="http://www.w3.org/2000/svg"><rect x="0" y="0" width="640" height="970" rx="6" fill="#cccccc" stroke="#888888" stroke-width="2"></rect><rect x="8" y="8" width="624" height="954" rx="4" fill="#e5e5e5" stroke="#bbbbbb" stroke-width="1.5"></rect><g transform="translate(20, 20)"><rect x="0" y="55" width="600" height="70" fill="#a0a0a0"></rect><rect x="0" y="41" width="12" height="98" fill="#aaaaaa" stroke="#555555" stroke-width="1"></rect><circle cx="6" cy="49" r="4" fill="#888888" data-querschnitt="2.5" data-farbe="schwarz" style="cursor: pointer;"></circle><circle cx="6" cy="131" r="4" fill="#888888" data-querschnitt="2.5" data-farbe="schwarz" style="cursor: pointer;"></circle><rect x="12" y="41" width="12" height="98" fill="#4466cc" stroke="#555555" stroke-width="1"></rect><circle cx="18" cy="49" r="4" fill="#888888" data-querschnitt="2.5" data-farbe="blau" style="cursor: pointer;"></circle><circle cx="18" cy="131" r="4" fill="#888888" data-querschnitt="2.5" data-farbe="blau" style="cursor: pointer;"></circle><rect x="24" y="41" width="12" height="98" fill="#44aa44" stroke="#555555" stroke-width="1"></rect><circle cx="30" cy="49" r="4" fill="#888888" data-querschnitt="2.5" data-farbe="gn-ge" style="cursor: pointer;"></circle><circle cx="30" cy="131" r="4" fill="#888888" data-querschnitt="2.5" data-farbe="gn-ge" style="cursor: pointer;"></circle><rect x="36" y="41" width="12" height="98" fill="#aaaaaa" stroke="#555555" stroke-width="1"></rect><circle cx="42" cy="49" r="4" fill="#888888" data-querschnitt="1.5" data-farbe="schwarz" style="cursor: pointer;"></circle><circle cx="42" cy="131" r="4" fill="#888888" data-querschnitt="1.5" data-farbe="schwarz" style="cursor: pointer;"></circle><rect x="48" y="41" width="12" height="98" fill="#4466cc" stroke="#555555" stroke-width="1"></rect><circle cx="54" cy="49" r="4" fill="#888888" data-querschnitt="1.5" data-farbe="blau" style="cursor: pointer;"></circle><circle cx="54" cy="131" r="4" fill="#888888" data-querschnitt="1.5" data-farbe="blau" style="cursor: pointer;"></circle><rect x="60" y="41" width="12" height="98" fill="#44aa44" stroke="#555555" stroke-width="1"></rect><circle cx="66" cy="49" r="4" fill="#888888" data-querschnitt="1.5" data-farbe="gn-ge" style="cursor: pointer;"></circle><circle cx="66" cy="131" r="4" fill="#888888" data-querschnitt="1.5" data-farbe="gn-ge" style="cursor: pointer;"></circle><rect x="72" y="41" width="12" height="98" fill="#aaaaaa" stroke="#555555" stroke-width="1"></rect><circle cx="78" cy="49" r="4" fill="#888888" data-querschnitt="2.5" data-farbe="schwarz" style="cursor: pointer;"></circle><circle cx="78" cy="131" r="4" fill="#888888" data-querschnitt="2.5" data-farbe="schwarz" style="cursor: pointer;"></circle><rect x="84" y="41" width="12" height="98" fill="#4466cc" stroke="#555555" stroke-width="1"></rect><circle cx="90" cy="49" r="4" fill="#888888" data-querschnitt="2.5" data-farbe="blau" style="cursor: pointer;"></circle><circle cx="90" cy="131" r="4" fill="#888888" data-querschnitt="2.5" data-farbe="blau" style="cursor: pointer;"></circle><rect x="96" y="41" width="12" height="98" fill="#44aa44" stroke="#555555" stroke-width="1"></rect><circle cx="102" cy="49" r="4" fill="#888888" data-querschnitt="2.5" data-farbe="gn-ge" style="cursor: pointer;"></circle><circle cx="102" cy="131" r="4" fill="#888888" data-querschnitt="2.5" data-farbe="gn-ge" style="cursor: pointer;"></circle><rect x="108" y="41" width="12" height="98" fill="#aaaaaa" stroke="#555555" stroke-width="1"></rect><circle cx="114" cy="49" r="4" fill="#888888" data-querschnitt="2.5" data-farbe="schwarz" style="cursor: pointer;"></circle><circle cx="114" cy="131" r="4" fill="#888888" data-querschnitt="2.5" data-farbe="schwarz" style="cursor: pointer;"></circle><rect x="120" y="41" width="12" height="98" fill="#4466cc" stroke="#555555" stroke-width="1"></rect><circle cx="126" cy="49" r="4" fill="#888888" data-querschnitt="2.5" data-farbe="blau" style="cursor: pointer;"></circle><circle cx="126" cy="131" r="4" fill="#888888" data-querschnitt="2.5" data-farbe="blau" style="cursor: pointer;"></circle><rect x="132" y="41" width="12" height="98" fill="#44aa44" stroke="#555555" stroke-width="1"></rect><circle cx="138" cy="49" r="4" fill="#888888" data-querschnitt="2.5" data-farbe="gn-ge" style="cursor: pointer;"></circle><circle cx="138" cy="131" r="4" fill="#888888" data-querschnitt="2.5" data-farbe="gn-ge" style="cursor: pointer;"></circle><rect x="144" y="41" width="12" height="98" fill="#aaaaaa" stroke="#555555" stroke-width="1"></rect><circle cx="150" cy="49" r="4" fill="#888888" data-querschnitt="2.5" data-farbe="schwarz" style="cursor: pointer;"></circle><circle cx="150" cy="131" r="4" fill="#888888" data-querschnitt="2.5" data-farbe="schwarz" style="cursor: pointer;"></circle><rect x="156" y="41" width="12" height="98" fill="#4466cc" stroke="#555555" stroke-width="1"></rect><circle cx="162" cy="49" r="4" fill="#888888" data-querschnitt="2.5" data-farbe="blau" style="cursor: pointer;"></circle><circle cx="162" cy="131" r="4" fill="#888888" data-querschnitt="2.5" data-farbe="blau" style="cursor: pointer;"></circle><rect x="168" y="41" width="12" height="98" fill="#44aa44" stroke="#555555" stroke-width="1"></rect><circle cx="174" cy="49" r="4" fill="#888888" data-querschnitt="2.5" data-farbe="gn-ge" style="cursor: pointer;"></circle><circle cx="174" cy="131" r="4" fill="#888888" data-querschnitt="2.5" data-farbe="gn-ge" style="cursor: pointer;"></circle><rect x="180" y="41" width="12" height="98" fill="#aaaaaa" stroke="#555555" stroke-width="1"></rect><circle cx="186" cy="49" r="4" fill="#888888" data-querschnitt="1.5" data-farbe="schwarz" style="cursor: pointer;"></circle><circle cx="186" cy="131" r="4" fill="#888888" data-querschnitt="1.5" data-farbe="schwarz" style="cursor: pointer;"></circle><rect x="192" y="41" width="12" height="98" fill="#4466cc" stroke="#555555" stroke-width="1"></rect><circle cx="198" cy="49" r="4" fill="#888888" data-querschnitt="1.5" data-farbe="blau" style="cursor: pointer;"></circle><circle cx="198" cy="131" r="4" fill="#888888" data-querschnitt="1.5" data-farbe="blau" style="cursor: pointer;"></circle><rect x="204" y="41" width="12" height="98" fill="#44aa44" stroke="#555555" stroke-width="1"></rect><circle cx="210" cy="49" r="4" fill="#888888" data-querschnitt="1.5" data-farbe="gn-ge" style="cursor: pointer;"></circle><circle cx="210" cy="131" r="4" fill="#888888" data-querschnitt="1.5" data-farbe="gn-ge" style="cursor: pointer;"></circle><rect x="0" y="305" width="600" height="70" fill="#a0a0a0"></rect><rect x="0" y="250" width="72" height="180" fill="#e0e0e0" stroke="#555555" stroke-width="1"></rect><rect x="0" y="250" width="72" height="20" fill="#aaaaaa"></rect><text x="36" y="343" text-anchor="middle" font-size="9" fill="#000000">A 30mA</text><circle cx="18" cy="260" r="4" fill="#888888" data-querschnitt="10" data-farbe="schwarz" style="cursor: pointer;"></circle><circle cx="18" cy="420" r="4" fill="#888888" data-querschnitt="2.5" data-farbe="schwarz" style="cursor: pointer;"></circle><circle cx="54" cy="260" r="4" fill="#888888" data-querschnitt="10" data-farbe="blau" style="cursor: pointer;"></circle><circle cx="54" cy="420" r="4" fill="#888888" data-querschnitt="2.5" data-farbe="blau" style="cursor: pointer;"></circle><rect x="72" y="250" width="36" height="180" fill="#e0e0e0" stroke="#555555" stroke-width="1"></rect><rect x="72" y="250" width="36" height="20" fill="#aaaaaa"></rect><text x="90" y="343" text-anchor="middle" font-size="9" fill="#000000">B16</text><circle cx="90" cy="260" r="4" fill="#888888" data-querschnitt="2.5" data-farbe="schwarz" style="cursor: pointer;"></circle><circle cx="90" cy="420" r="4" fill="#888888" data-querschnitt="2.5" data-farbe="schwarz" style="cursor: pointer;"></circle><rect x="108" y="250" width="36" height="180" fill="#e0e0e0" stroke="#555555" stroke-width="1"></rect><rect x="108" y="250" width="36" height="20" fill="#aaaaaa"></rect><text x="126" y="343" text-anchor="middle" font-size="9" fill="#000000">B10</text><circle cx="126" cy="260" r="4" fill="#888888" data-querschnitt="1.5" data-farbe="schwarz" style="cursor: pointer;"></circle><circle cx="126" cy="420" r="4" fill="#888888" data-querschnitt="1.5" data-farbe="schwarz" style="cursor: pointer;"></circle><rect x="0" y="555" width="600" height="70" fill="#a0a0a0"></rect><rect x="0" y="500" width="72" height="180" fill="#e0e0e0" stroke="#555555" stroke-width="1"></rect><rect x="0" y="500" width="72" height="20" fill="#aaaaaa"></rect><text x="36" y="593" text-anchor="middle" font-size="9" fill="#000000">A 30mA</text><circle cx="18" cy="510" r="4" fill="#888888" data-querschnitt="10" data-farbe="schwarz" style="cursor: pointer;"></circle><circle cx="18" cy="670" r="4" fill="#888888" data-querschnitt="2.5" data-farbe="schwarz" style="cursor: pointer;"></circle><circle cx="54" cy="510" r="4" fill="#888888" data-querschnitt="10" data-farbe="blau" style="cursor: pointer;"></circle><circle cx="54" cy="670" r="4" fill="#888888" data-querschnitt="2.5" data-farbe="blau" style="cursor: pointer;"></circle><rect x="72" y="500" width="36" height="180" fill="#e0e0e0" stroke="#555555" stroke-width="1"></rect><rect x="72" y="500" width="36" height="20" fill="#aaaaaa"></rect><text x="90" y="593" text-anchor="middle" font-size="9" fill="#000000">B16</text><circle cx="90" cy="510" r="4" fill="#888888" data-querschnitt="2.5" data-farbe="schwarz" style="cursor: pointer;"></circle><circle cx="90" cy="670" r="4" fill="#888888" data-querschnitt="2.5" data-farbe="schwarz" style="cursor: pointer;"></circle><rect x="108" y="500" width="36" height="180" fill="#e0e0e0" stroke="#555555" stroke-width="1"></rect><rect x="108" y="500" width="36" height="20" fill="#aaaaaa"></rect><text x="126" y="593" text-anchor="middle" font-size="9" fill="#000000">B16</text><circle cx="126" cy="510" r="4" fill="#888888" data-querschnitt="2.5" data-farbe="schwarz" style="cursor: pointer;"></circle><circle cx="126" cy="670" r="4" fill="#888888" data-querschnitt="2.5" data-farbe="schwarz" style="cursor: pointer;"></circle><rect x="144" y="500" width="72" height="180" fill="#e0e0e0" stroke="#555555" stroke-width="1"></rect><rect x="144" y="500" width="72" height="20" fill="#aaaaaa"></rect><text x="180" y="593" text-anchor="middle" font-size="9" fill="#000000">A 30mA</text><circle cx="162" cy="510" r="4" fill="#888888" data-querschnitt="10" data-farbe="schwarz" style="cursor: pointer;"></circle><circle cx="162" cy="670" r="4" fill="#888888" data-querschnitt="2.5" data-farbe="schwarz" style="cursor: pointer;"></circle><circle cx="198" cy="510" r="4" fill="#888888" data-querschnitt="10" data-farbe="blau" style="cursor: pointer;"></circle><circle cx="198" cy="670" r="4" fill="#888888" data-querschnitt="2.5" data-farbe="blau" style="cursor: pointer;"></circle><rect x="216" y="500" width="36" height="180" fill="#e0e0e0" stroke="#555555" stroke-width="1"></rect><rect x="216" y="500" width="36" height="20" fill="#aaaaaa"></rect><text x="234" y="593" text-anchor="middle" font-size="9" fill="#000000">B16</text><circle cx="234" cy="510" r="4" fill="#888888" data-querschnitt="2.5" data-farbe="schwarz" style="cursor: pointer;"></circle><circle cx="234" cy="670" r="4" fill="#888888" data-querschnitt="2.5" data-farbe="schwarz" style="cursor: pointer;"></circle><rect x="252" y="500" width="36" height="180" fill="#e0e0e0" stroke="#555555" stroke-width="1"></rect><rect x="252" y="500" width="36" height="20" fill="#aaaaaa"></rect><text x="270" y="593" text-anchor="middle" font-size="9" fill="#000000">B10</text><circle cx="270" cy="510" r="4" fill="#888888" data-querschnitt="1.5" data-farbe="schwarz" style="cursor: pointer;"></circle><circle cx="270" cy="670" r="4" fill="#888888" data-querschnitt="1.5" data-farbe="schwarz" style="cursor: pointer;"></circle><rect x="0" y="805" width="600" height="70" fill="#a0a0a0"></rect><rect x="0" y="750" width="72" height="180" fill="#444444" stroke="#555555" stroke-width="1"></rect><rect x="0" y="750" width="72" height="20" fill="#222222"></rect><text x="36" y="843" text-anchor="middle" font-size="9" fill="#ffffff">25A</text><circle cx="18" cy="760" r="4" fill="#888888" data-querschnitt="10" data-farbe="schwarz" style="cursor: pointer;"></circle><circle cx="18" cy="920" r="4" fill="#888888" data-querschnitt="10" data-farbe="schwarz" style="cursor: pointer;"></circle><circle cx="54" cy="760" r="4" fill="#888888" data-querschnitt="10" data-farbe="blau" style="cursor: pointer;"></circle><circle cx="54" cy="920" r="4" fill="#888888" data-querschnitt="10" data-farbe="blau" style="cursor: pointer;"></circle><rect x="72" y="791" width="24" height="98" fill="#aaaaaa" stroke="#555555" stroke-width="1"></rect><rect x="72" y="791" width="24" height="10" fill="#666666"></rect><circle cx="84" cy="799" r="4" fill="#888888" data-querschnitt="16" data-farbe="schwarz" style="cursor: pointer;"></circle><circle cx="84" cy="881" r="4" fill="#888888" data-querschnitt="10" data-farbe="schwarz" style="cursor: pointer;"></circle><rect x="96" y="791" width="24" height="98" fill="#4466cc" stroke="#555555" stroke-width="1"></rect><rect x="96" y="791" width="24" height="10" fill="#224499"></rect><circle cx="108" cy="799" r="4" fill="#888888" data-querschnitt="16" data-farbe="blau" style="cursor: pointer;"></circle><circle cx="108" cy="881" r="4" fill="#888888" data-querschnitt="10" data-farbe="blau" style="cursor: pointer;"></circle><rect x="120" y="791" width="24" height="98" fill="#44aa44" stroke="#555555" stroke-width="1"></rect><rect x="120" y="791" width="24" height="10" fill="#227722"></rect><circle cx="132" cy="799" r="4" fill="#888888" data-querschnitt="16" data-farbe="gn-ge" style="cursor: pointer;"></circle><circle cx="132" cy="881" r="4" fill="#888888" data-querschnitt="2.5" data-farbe="gn-ge" style="cursor: pointer;"></circle></g></svg>